<?xml version="1.0" standalone="no"?>
<!DOCTYPE svg PUBLIC "-//W3C//DTD SVG 20010904//EN"
 "http://www.w3.org/TR/2001/REC-SVG-20010904/DTD/svg10.dtd">
<svg version="1.0" xmlns="http://www.w3.org/2000/svg"
 width="1750.000000pt" height="255.000000pt" viewBox="0 0 1750.000000 255.000000"
 preserveAspectRatio="xMidYMid meet">
<metadata>
Created by potrace 1.16, written by Peter Selinger 2001-2019
</metadata>
<g transform="translate(0.000000,255.000000) scale(0.100000,-0.100000)"
fill="#000000" stroke="none">
<path d="M5195 2425 c-252 -39 -463 -144 -633 -314 -203 -204 -314 -430 -353
-719 -38 -282 52 -621 228 -858 68 -90 198 -216 285 -275 381 -259 958 -261
1354 -5 169 110 350 328 430 518 63 149 86 254 91 428 8 229 -24 382 -117 577
-49 101 -75 123 -145 123 -49 0 -61 -5 -168 -77 -63 -43 -122 -90 -131 -105
-24 -39 -20 -81 18 -177 48 -120 59 -189 54 -328 -4 -94 -10 -135 -32 -198
-140 -412 -586 -617 -957 -439 -198 95 -325 237 -396 439 -25 73 -27 93 -28
225 0 124 3 156 23 220 88 283 314 485 597 535 129 22 125 16 125 212 0 170
-8 213 -45 227 -25 9 -110 6 -200 -9z"/>
<path d="M13339 2391 c-23 -19 -24 -25 -27 -185 -3 -166 -3 -166 22 -191 l25
-25 201 0 201 0 25 25 c25 25 25 25 22 191 -4 219 15 204 -248 204 -180 0
-200 -2 -221 -19z"/>
<path d="M14604 2389 c-18 -20 -19 -52 -24 -803 l-5 -781 -29 -58 c-72 -141
-263 -249 -413 -234 -115 12 -234 96 -289 204 l-29 58 -3 370 c-1 204 -4 380
-7 392 -12 51 -21 53 -243 53 -114 0 -212 -4 -218 -8 -31 -20 -34 -54 -34
-389 0 -186 5 -370 10 -408 23 -179 104 -341 234 -470 172 -171 339 -235 608
-235 158 0 232 11 353 51 222 74 411 244 496 449 59 140 59 146 59 1003 0 774
0 783 -20 805 -20 21 -28 22 -224 22 -194 0 -204 -1 -222 -21z"/>
<path d="M115 2370 c-12 -22 -15 -66 -15 -193 0 -142 2 -168 18 -186 17 -20
25 -21 427 -23 396 -3 412 -4 457 -25 115 -53 182 -155 182 -278 1 -119 -57
-205 -174 -263 l-55 -27 -413 -3 -412 -3 -15 -29 c-13 -25 -15 -115 -15 -615
0 -572 0 -585 20 -605 19 -19 33 -20 203 -20 165 0 186 2 200 18 15 17 17 59
17 403 0 224 4 390 10 399 8 12 54 16 277 21 299 6 341 14 471 85 175 98 315
280 363 474 17 69 17 269 0 330 -81 284 -274 486 -529 551 -69 17 -113 19
-538 19 l-463 0 -16 -30z"/>
<path d="M2197 2382 c-15 -16 -17 -53 -17 -314 0 -276 1 -297 19 -319 19 -24
22 -24 200 -24 218 0 213 -3 222 116 9 123 10 124 212 124 190 -1 226 -12 306
-94 58 -60 81 -119 81 -210 0 -143 -97 -252 -249 -281 -30 -6 -209 -10 -406
-10 -328 0 -353 -1 -368 -18 -15 -17 -17 -74 -17 -620 0 -533 2 -602 16 -616
13 -13 46 -16 203 -16 169 0 190 2 204 18 15 17 17 59 17 398 0 312 3 384 14
400 13 17 29 19 168 22 109 2 160 -1 176 -10 18 -10 66 -110 199 -408 96 -217
182 -401 191 -407 11 -10 71 -13 213 -13 109 0 204 3 213 6 9 3 16 17 16 29 0
13 -88 220 -195 459 -107 240 -195 445 -195 455 0 11 39 58 88 108 100 100
157 197 193 328 18 67 21 97 17 209 -4 120 -8 139 -39 221 -93 243 -286 415
-526 469 -60 13 -142 16 -506 16 -408 0 -435 -1 -450 -18z"/>
<path d="M6959 2383 c-10 -12 -15 -60 -17 -180 -4 -220 -9 -213 142 -213 99 0
117 -3 140 -21 l26 -20 0 -907 c0 -499 4 -913 8 -920 7 -9 67 -12 268 -10
l259 3 5 915 c3 503 6 916 8 917 1 1 12 11 24 23 21 19 34 20 349 20 290 0
329 2 344 16 14 14 16 40 13 189 -2 127 -7 176 -17 188 -12 16 -79 17 -776 17
-696 0 -764 -1 -776 -17z"/>
<path d="M9046 2378 c-13 -18 -16 -54 -16 -189 0 -148 2 -168 18 -182 17 -16
89 -17 835 -17 888 0 838 -3 853 54 3 13 4 89 2 169 -3 126 -6 148 -22 166
l-19 21 -818 0 -818 0 -15 -22z"/>
<path d="M11419 2390 c-24 -14 -28 -28 -139 -438 -64 -234 -100 -383 -96 -397
7 -27 -1 -24 230 -81 151 -37 206 -39 231 -12 7 7 38 108 69 223 65 242 77
271 111 287 23 10 29 8 52 -14 21 -21 42 -86 119 -364 51 -187 93 -349 94
-361 0 -12 -9 -27 -19 -33 -12 -6 -106 -10 -235 -10 -266 0 -246 16 -246 -191
0 -108 3 -149 13 -157 8 -7 111 -12 291 -14 l278 -3 27 -30 c21 -25 40 -81 98
-300 99 -369 99 -370 125 -384 17 -8 86 -11 242 -9 187 3 220 5 229 19 12 20
-584 2210 -612 2249 l-18 25 -414 2 c-249 2 -420 -1 -430 -7z"/>
<path d="M15487 2393 c-29 -28 -2 -77 339 -622 l345 -553 -19 -31 c-10 -18
-157 -254 -326 -525 -261 -419 -307 -497 -304 -525 l3 -32 235 -2 c172 -2 241
0 259 10 15 8 268 403 703 1102 374 600 684 1100 689 1113 5 13 6 34 3 48 l-6
24 -242 0 c-179 0 -246 -3 -258 -12 -8 -7 -109 -164 -223 -348 -114 -184 -215
-343 -223 -353 -13 -14 -18 -15 -28 -5 -6 7 -108 168 -225 358 -117 190 -218
348 -223 352 -14 10 -490 10 -499 1z"/>
<path d="M9046 1718 c-14 -20 -16 -113 -16 -805 l0 -782 22 -15 c20 -14 116
-16 835 -16 800 0 813 0 833 20 18 18 20 33 20 184 0 141 -2 167 -17 185 -18
21 -22 21 -611 23 -575 3 -594 4 -608 22 -11 16 -14 62 -14 212 0 174 2 194
19 215 l19 24 456 5 c391 4 458 7 466 20 5 8 10 85 10 170 0 125 -3 160 -16
178 l-15 22 -427 0 c-417 0 -486 4 -504 32 -4 7 -8 74 -8 148 0 193 17 180
-230 180 -194 0 -199 -1 -214 -22z"/>
<path d="M16786 858 c-20 -23 -68 -92 -106 -154 -97 -156 -99 -142 53 -384 76
-121 131 -199 147 -207 18 -9 90 -13 252 -13 222 0 228 1 239 21 8 16 8 28 -1
48 -6 14 -111 185 -231 379 l-220 352 -49 0 c-45 0 -51 -3 -84 -42z"/>
</g>
</svg>
